<mxfile host="app.diagrams.net" agent="Mozilla/5.0 (Windows NT 10.0; Win64; x64) AppleWebKit/537.36 (KHTML, like Gecko) Chrome/127.0.0.0 Safari/537.36" version="24.7.6">
  <diagram name="Page-1" id="tYjYhTFhn3t4Gm4OkZmV">
    <mxGraphModel dx="1784" dy="579" grid="1" gridSize="10" guides="1" tooltips="1" connect="1" arrows="1" fold="1" page="1" pageScale="1" pageWidth="850" pageHeight="1100" math="0" shadow="0">
      <root>
        <mxCell id="0" />
        <mxCell id="1" parent="0" />
        <mxCell id="qI5HSzvizSGL4czjt8Xe-39" style="edgeStyle=orthogonalEdgeStyle;rounded=0;orthogonalLoop=1;jettySize=auto;html=1;endArrow=oval;endFill=0;" edge="1" parent="1" source="qI5HSzvizSGL4czjt8Xe-1">
          <mxGeometry relative="1" as="geometry">
            <mxPoint x="-80.00000000000023" y="290" as="targetPoint" />
          </mxGeometry>
        </mxCell>
        <mxCell id="qI5HSzvizSGL4czjt8Xe-1" value="" style="sketch=0;points=[[0,0,0],[0.25,0,0],[0.5,0,0],[0.75,0,0],[1,0,0],[0,1,0],[0.25,1,0],[0.5,1,0],[0.75,1,0],[1,1,0],[0,0.25,0],[0,0.5,0],[0,0.75,0],[1,0.25,0],[1,0.5,0],[1,0.75,0]];outlineConnect=0;fontColor=#232F3E;fillColor=#01A88D;strokeColor=#ffffff;dashed=0;verticalLabelPosition=bottom;verticalAlign=top;align=center;html=1;fontSize=12;fontStyle=0;aspect=fixed;shape=mxgraph.aws4.resourceIcon;resIcon=mxgraph.aws4.sagemaker;" vertex="1" parent="1">
          <mxGeometry x="-110" y="369" width="60" height="60" as="geometry" />
        </mxCell>
        <mxCell id="qI5HSzvizSGL4czjt8Xe-38" style="edgeStyle=orthogonalEdgeStyle;rounded=0;orthogonalLoop=1;jettySize=auto;html=1;endArrow=oval;endFill=0;startArrow=classic;startFill=1;" edge="1" parent="1" source="qI5HSzvizSGL4czjt8Xe-2">
          <mxGeometry relative="1" as="geometry">
            <mxPoint x="-80.00000000000023" y="290" as="targetPoint" />
          </mxGeometry>
        </mxCell>
        <mxCell id="qI5HSzvizSGL4czjt8Xe-2" value="" style="sketch=0;points=[[0,0,0],[0.25,0,0],[0.5,0,0],[0.75,0,0],[1,0,0],[0,1,0],[0.25,1,0],[0.5,1,0],[0.75,1,0],[1,1,0],[0,0.25,0],[0,0.5,0],[0,0.75,0],[1,0.25,0],[1,0.5,0],[1,0.75,0]];outlineConnect=0;fontColor=#232F3E;fillColor=#7AA116;strokeColor=#ffffff;dashed=0;verticalLabelPosition=bottom;verticalAlign=top;align=center;html=1;fontSize=12;fontStyle=0;aspect=fixed;shape=mxgraph.aws4.resourceIcon;resIcon=mxgraph.aws4.s3;" vertex="1" parent="1">
          <mxGeometry x="-200" y="260" width="60" height="60" as="geometry" />
        </mxCell>
        <mxCell id="qI5HSzvizSGL4czjt8Xe-3" value="" style="outlineConnect=0;dashed=0;verticalLabelPosition=bottom;verticalAlign=top;align=center;html=1;shape=mxgraph.aws3.lambda_function;fillColor=#F58534;gradientColor=none;" vertex="1" parent="1">
          <mxGeometry x="-290" y="369" width="60" height="60" as="geometry" />
        </mxCell>
        <mxCell id="qI5HSzvizSGL4czjt8Xe-4" value="" style="sketch=0;points=[[0,0,0],[0.25,0,0],[0.5,0,0],[0.75,0,0],[1,0,0],[0,1,0],[0.25,1,0],[0.5,1,0],[0.75,1,0],[1,1,0],[0,0.25,0],[0,0.5,0],[0,0.75,0],[1,0.25,0],[1,0.5,0],[1,0.75,0]];outlineConnect=0;fontColor=#232F3E;fillColor=#E7157B;strokeColor=#ffffff;dashed=0;verticalLabelPosition=bottom;verticalAlign=top;align=center;html=1;fontSize=12;fontStyle=0;aspect=fixed;shape=mxgraph.aws4.resourceIcon;resIcon=mxgraph.aws4.api_gateway;" vertex="1" parent="1">
          <mxGeometry x="-455" y="371" width="60" height="60" as="geometry" />
        </mxCell>
        <mxCell id="qI5HSzvizSGL4czjt8Xe-5" value="" style="sketch=0;outlineConnect=0;fontColor=#232F3E;gradientColor=none;fillColor=#E7157B;strokeColor=none;dashed=0;verticalLabelPosition=bottom;verticalAlign=top;align=center;html=1;fontSize=12;fontStyle=0;aspect=fixed;pointerEvents=1;shape=mxgraph.aws4.endpoint;" vertex="1" parent="1">
          <mxGeometry x="-640" y="371" width="58" height="58" as="geometry" />
        </mxCell>
        <mxCell id="qI5HSzvizSGL4czjt8Xe-11" value="" style="outlineConnect=0;dashed=0;verticalLabelPosition=bottom;verticalAlign=top;align=center;html=1;shape=mxgraph.aws3.user;fillColor=#8aca86;strokeColor=#82b366;" vertex="1" parent="1">
          <mxGeometry x="-825" y="360" width="55" height="80" as="geometry" />
        </mxCell>
        <mxCell id="qI5HSzvizSGL4czjt8Xe-12" value="&lt;font style=&quot;font-size: 14px;&quot;&gt;User&lt;/font&gt;" style="text;html=1;align=center;verticalAlign=middle;resizable=0;points=[];autosize=1;strokeColor=none;fillColor=none;" vertex="1" parent="1">
          <mxGeometry x="-825" y="440" width="50" height="30" as="geometry" />
        </mxCell>
        <mxCell id="qI5HSzvizSGL4czjt8Xe-13" value="&lt;font style=&quot;font-size: 14px;&quot;&gt;API&amp;nbsp;&lt;span style=&quot;color: rgba(0, 0, 0, 0); font-family: monospace; font-size: 0px; text-align: start;&quot;&gt;%3CmxGraphModel%3E%3Croot%3E%3CmxCell%20id%3D%220%22%2F%3E%3CmxCell%20id%3D%221%22%20parent%3D%220%22%2F%3E%3CmxCell%20id%3D%222%22%20value%3D%22%26lt%3Bfont%20style%3D%26quot%3Bfont-size%3A%2014px%3B%26quot%3B%26gt%3BUser%26lt%3B%2Ffont%26gt%3B%22%20style%3D%22text%3Bhtml%3D1%3Balign%3Dcenter%3BverticalAlign%3Dmiddle%3Bresizable%3D0%3Bpoints%3D%5B%5D%3Bautosize%3D1%3BstrokeColor%3Dnone%3BfillColor%3Dnone%3B%22%20vertex%3D%221%22%20parent%3D%221%22%3E%3CmxGeometry%20x%3D%22-825%22%20y%3D%22440%22%20width%3D%2250%22%20height%3D%2230%22%20as%3D%22geometry%22%2F%3E%3C%2FmxCell%3E%3C%2Froot%3E%3C%2FmxGraphModel%3E&lt;/span&gt;Endpoint&lt;/font&gt;" style="text;html=1;align=center;verticalAlign=middle;resizable=0;points=[];autosize=1;strokeColor=none;fillColor=none;" vertex="1" parent="1">
          <mxGeometry x="-670" y="440" width="110" height="30" as="geometry" />
        </mxCell>
        <mxCell id="qI5HSzvizSGL4czjt8Xe-14" value="&lt;font style=&quot;font-size: 14px;&quot;&gt;Amazon API&lt;/font&gt;&lt;div&gt;&lt;font style=&quot;font-size: 14px;&quot;&gt;Gateway&lt;/font&gt;&lt;/div&gt;" style="text;html=1;align=center;verticalAlign=middle;resizable=0;points=[];autosize=1;strokeColor=none;fillColor=none;" vertex="1" parent="1">
          <mxGeometry x="-480" y="430" width="100" height="50" as="geometry" />
        </mxCell>
        <mxCell id="qI5HSzvizSGL4czjt8Xe-15" value="&lt;font style=&quot;font-size: 14px;&quot;&gt;Lambda&lt;/font&gt;" style="text;html=1;align=center;verticalAlign=middle;resizable=0;points=[];autosize=1;strokeColor=none;fillColor=none;" vertex="1" parent="1">
          <mxGeometry x="-295" y="440" width="70" height="30" as="geometry" />
        </mxCell>
        <mxCell id="qI5HSzvizSGL4czjt8Xe-16" value="&lt;font style=&quot;font-size: 14px;&quot;&gt;Sagemaker&lt;/font&gt;&lt;div&gt;&lt;font style=&quot;font-size: 14px;&quot;&gt;Endpoint&lt;/font&gt;&lt;/div&gt;" style="text;html=1;align=center;verticalAlign=middle;resizable=0;points=[];autosize=1;strokeColor=none;fillColor=none;" vertex="1" parent="1">
          <mxGeometry x="-130" y="430" width="100" height="50" as="geometry" />
        </mxCell>
        <mxCell id="qI5HSzvizSGL4czjt8Xe-17" value="&lt;font style=&quot;font-size: 14px;&quot;&gt;S3&lt;/font&gt;&lt;div&gt;&lt;font style=&quot;font-size: 14px;&quot;&gt;Storage&lt;/font&gt;&lt;/div&gt;" style="text;html=1;align=center;verticalAlign=middle;resizable=0;points=[];autosize=1;strokeColor=none;fillColor=none;" vertex="1" parent="1">
          <mxGeometry x="-205" y="220" width="70" height="50" as="geometry" />
        </mxCell>
        <mxCell id="qI5HSzvizSGL4czjt8Xe-19" value="" style="endArrow=classic;html=1;rounded=0;" edge="1" parent="1">
          <mxGeometry width="50" height="50" relative="1" as="geometry">
            <mxPoint x="-760" y="398" as="sourcePoint" />
            <mxPoint x="-650" y="398" as="targetPoint" />
          </mxGeometry>
        </mxCell>
        <mxCell id="qI5HSzvizSGL4czjt8Xe-20" value="" style="endArrow=classic;html=1;rounded=0;dashed=1;dashPattern=8 8;" edge="1" parent="1">
          <mxGeometry width="50" height="50" relative="1" as="geometry">
            <mxPoint x="-648" y="410" as="sourcePoint" />
            <mxPoint x="-765" y="410" as="targetPoint" />
            <Array as="points">
              <mxPoint x="-705" y="410" />
            </Array>
          </mxGeometry>
        </mxCell>
        <mxCell id="qI5HSzvizSGL4czjt8Xe-21" value="&lt;font style=&quot;font-size: 10px;&quot;&gt;Request&lt;/font&gt;" style="text;html=1;align=center;verticalAlign=middle;resizable=0;points=[];autosize=1;strokeColor=none;fillColor=none;" vertex="1" parent="1">
          <mxGeometry x="-745" y="373" width="60" height="30" as="geometry" />
        </mxCell>
        <mxCell id="qI5HSzvizSGL4czjt8Xe-22" value="&lt;font style=&quot;font-size: 10px;&quot;&gt;Response&lt;/font&gt;" style="text;html=1;align=center;verticalAlign=middle;resizable=0;points=[];autosize=1;strokeColor=none;fillColor=none;" vertex="1" parent="1">
          <mxGeometry x="-750" y="404" width="70" height="30" as="geometry" />
        </mxCell>
        <mxCell id="qI5HSzvizSGL4czjt8Xe-23" value="" style="endArrow=classic;html=1;rounded=0;" edge="1" parent="1">
          <mxGeometry width="50" height="50" relative="1" as="geometry">
            <mxPoint x="-571" y="393.5" as="sourcePoint" />
            <mxPoint x="-461" y="393.5" as="targetPoint" />
          </mxGeometry>
        </mxCell>
        <mxCell id="qI5HSzvizSGL4czjt8Xe-24" value="" style="endArrow=classic;html=1;rounded=0;dashed=1;dashPattern=8 8;" edge="1" parent="1">
          <mxGeometry width="50" height="50" relative="1" as="geometry">
            <mxPoint x="-459" y="405.5" as="sourcePoint" />
            <mxPoint x="-576" y="405.5" as="targetPoint" />
            <Array as="points">
              <mxPoint x="-516" y="405.5" />
            </Array>
          </mxGeometry>
        </mxCell>
        <mxCell id="qI5HSzvizSGL4czjt8Xe-25" value="&lt;font style=&quot;font-size: 10px;&quot;&gt;Request&lt;/font&gt;" style="text;html=1;align=center;verticalAlign=middle;resizable=0;points=[];autosize=1;strokeColor=none;fillColor=none;" vertex="1" parent="1">
          <mxGeometry x="-556" y="368.5" width="60" height="30" as="geometry" />
        </mxCell>
        <mxCell id="qI5HSzvizSGL4czjt8Xe-26" value="&lt;font style=&quot;font-size: 10px;&quot;&gt;Response&lt;/font&gt;" style="text;html=1;align=center;verticalAlign=middle;resizable=0;points=[];autosize=1;strokeColor=none;fillColor=none;" vertex="1" parent="1">
          <mxGeometry x="-561" y="400.5" width="70" height="30" as="geometry" />
        </mxCell>
        <mxCell id="qI5HSzvizSGL4czjt8Xe-27" value="" style="endArrow=classic;html=1;rounded=0;" edge="1" parent="1">
          <mxGeometry width="50" height="50" relative="1" as="geometry">
            <mxPoint x="-387" y="392.5" as="sourcePoint" />
            <mxPoint x="-290" y="393.5" as="targetPoint" />
          </mxGeometry>
        </mxCell>
        <mxCell id="qI5HSzvizSGL4czjt8Xe-28" value="" style="endArrow=classic;html=1;rounded=0;dashed=1;dashPattern=8 8;exitX=1.022;exitY=0.046;exitDx=0;exitDy=0;exitPerimeter=0;" edge="1" parent="1" source="qI5HSzvizSGL4czjt8Xe-30">
          <mxGeometry width="50" height="50" relative="1" as="geometry">
            <mxPoint x="-275" y="404.5" as="sourcePoint" />
            <mxPoint x="-392" y="404.5" as="targetPoint" />
            <Array as="points">
              <mxPoint x="-332" y="404.5" />
            </Array>
          </mxGeometry>
        </mxCell>
        <mxCell id="qI5HSzvizSGL4czjt8Xe-29" value="&lt;font style=&quot;font-size: 10px;&quot;&gt;Request&lt;/font&gt;" style="text;html=1;align=center;verticalAlign=middle;resizable=0;points=[];autosize=1;strokeColor=none;fillColor=none;" vertex="1" parent="1">
          <mxGeometry x="-372" y="368.5" width="60" height="30" as="geometry" />
        </mxCell>
        <mxCell id="qI5HSzvizSGL4czjt8Xe-30" value="&lt;font style=&quot;font-size: 10px;&quot;&gt;Response&lt;/font&gt;" style="text;html=1;align=center;verticalAlign=middle;resizable=0;points=[];autosize=1;strokeColor=none;fillColor=none;" vertex="1" parent="1">
          <mxGeometry x="-377" y="399.5" width="70" height="30" as="geometry" />
        </mxCell>
        <mxCell id="qI5HSzvizSGL4czjt8Xe-32" value="" style="endArrow=classic;html=1;rounded=0;" edge="1" parent="1">
          <mxGeometry width="50" height="50" relative="1" as="geometry">
            <mxPoint x="-216" y="396" as="sourcePoint" />
            <mxPoint x="-119" y="397" as="targetPoint" />
          </mxGeometry>
        </mxCell>
        <mxCell id="qI5HSzvizSGL4czjt8Xe-33" value="" style="endArrow=classic;html=1;rounded=0;dashed=1;dashPattern=8 8;exitX=1.022;exitY=0.046;exitDx=0;exitDy=0;exitPerimeter=0;" edge="1" parent="1" source="qI5HSzvizSGL4czjt8Xe-35">
          <mxGeometry width="50" height="50" relative="1" as="geometry">
            <mxPoint x="-104" y="408" as="sourcePoint" />
            <mxPoint x="-221" y="408" as="targetPoint" />
            <Array as="points">
              <mxPoint x="-161" y="408" />
            </Array>
          </mxGeometry>
        </mxCell>
        <mxCell id="qI5HSzvizSGL4czjt8Xe-34" value="&lt;font style=&quot;font-size: 10px;&quot;&gt;Request&lt;/font&gt;" style="text;html=1;align=center;verticalAlign=middle;resizable=0;points=[];autosize=1;strokeColor=none;fillColor=none;" vertex="1" parent="1">
          <mxGeometry x="-201" y="372" width="60" height="30" as="geometry" />
        </mxCell>
        <mxCell id="qI5HSzvizSGL4czjt8Xe-35" value="&lt;font style=&quot;font-size: 10px;&quot;&gt;Response&lt;/font&gt;" style="text;html=1;align=center;verticalAlign=middle;resizable=0;points=[];autosize=1;strokeColor=none;fillColor=none;" vertex="1" parent="1">
          <mxGeometry x="-206" y="404" width="70" height="30" as="geometry" />
        </mxCell>
        <mxCell id="qI5HSzvizSGL4czjt8Xe-40" value="&lt;font style=&quot;font-size: 10px;&quot;&gt;Inference&amp;nbsp;&lt;/font&gt;&lt;div&gt;&lt;font style=&quot;font-size: 10px;&quot;&gt;Stored&lt;/font&gt;&lt;/div&gt;" style="text;html=1;align=center;verticalAlign=middle;resizable=0;points=[];autosize=1;strokeColor=none;fillColor=none;" vertex="1" parent="1">
          <mxGeometry x="-89" y="301" width="70" height="40" as="geometry" />
        </mxCell>
      </root>
    </mxGraphModel>
  </diagram>
</mxfile>
